HIERARCHY
ROOT hip
{
	OFFSET 0.000000 0.000000 0.000000 
	CHANNELS 6 Xposition Yposition Zposition Xrotation Zrotation Yrotation
	JOINT abdomen
	{
		OFFSET 0.000000 3.402643 0.000000 
		CHANNELS 3 Xrotation Zrotation Yrotation
		JOINT chest
		{
			OFFSET 0.000000 8.438565 -0.680529 
			CHANNELS 3 Xrotation Zrotation Yrotation
			JOINT neck
			{
				OFFSET 0.000000 10.207942 -0.272212 
				CHANNELS 3 Xrotation Zrotation Yrotation
				JOINT head
				{
					OFFSET 0.000000 3.130431 0.000000 
					CHANNELS 3 Xrotation Zrotation Yrotation
					End Site
					{
						OFFSET 0.000000 3.130435 0.000000 
					}
				}
			}
			JOINT lCollar
			{
				OFFSET 3.470700 6.669187 -0.816635 
				CHANNELS 3 Zrotation Yrotation Xrotation
				JOINT lShldr
				{
					OFFSET 3.198488 0.000000 0.000000 
					CHANNELS 3 Zrotation Yrotation Xrotation
					JOINT lForeArm
					{
						OFFSET 10.139888 0.000000 0.000000 
						CHANNELS 3 Yrotation Zrotation Xrotation
						JOINT lHand
						{
							OFFSET 8.370511 0.000000 0.000000 
							CHANNELS 3 Zrotation Yrotation Xrotation
							End Site
							{
								OFFSET 4.083176 0.000000 0.000000 
							}
						}
					}
				}
			}
			JOINT rCollar
			{
				OFFSET -3.470700 6.669187 -0.816635 
				CHANNELS 3 Zrotation Yrotation Xrotation
				JOINT rShldr
				{
					OFFSET -3.198488 0.000000 0.000000 
					CHANNELS 3 Zrotation Yrotation Xrotation
					JOINT rForeArm
					{
						OFFSET -10.139888 0.000000 0.000000 
						CHANNELS 3 Yrotation Zrotation Xrotation
						JOINT rHand
						{
							OFFSET -8.370511 0.000000 0.000000 
							CHANNELS 3 Zrotation Yrotation Xrotation
							End Site
							{
								OFFSET -4.083176 0.000000 0.000000 
							}
						}
					}
				}
			}
		}
	}
	JOINT lThigh
	{
		OFFSET 5.308129 -1.633274 1.361059 
		CHANNELS 3 Xrotation Zrotation Yrotation
		JOINT lShin
		{
			OFFSET -2.041588 -20.007561 0.000000 
			CHANNELS 3 Xrotation Zrotation Yrotation
			JOINT lFoot
			{
				OFFSET 0.000000 -19.190928 -1.224953 
				CHANNELS 3 Xrotation Yrotation Zrotation
				End Site
				{
					OFFSET 0.000000 -2.449906 4.627600 
				}
			}
		}
	}
	JOINT rThigh
	{
		OFFSET -5.308129 -1.633274 1.361059 
		CHANNELS 3 Xrotation Zrotation Yrotation
		JOINT rShin
		{
			OFFSET 2.041588 -20.007561 0.000000 
			CHANNELS 3 Xrotation Zrotation Yrotation
			JOINT rFoot
			{
				OFFSET 0.000000 -19.190928 -1.224953 
				CHANNELS 3 Xrotation Yrotation Zrotation
				End Site
				{
					OFFSET 0.000000 -2.449906 4.627600 
				}
			}
		}
	}
}
MOTION
Frames: 16
Frame Time: 0.016667
-0.132846 20.499731 -10.913554 -10.880531 -28.567005 -15.949586 60.918095 21.448517 17.379519 5.153592 0.683557 1.884840 -4.516649 4.969356 -0.317108 -3.632562 -4.286504 30.092131 -1.725525 -20.323627 0.506497 -55.745472 -25.933243 4.875052 -84.362633 -1.297224 0.022907 -34.217243 25.547678 22.089685 7.112172 19.627020 2.027610 59.292618 19.559544 12.921419 45.082401 5.000000 8.855347 9.536737 -23.006571 23.932909 -96.293434 27.059935 -13.572598 144.986664 6.417222 -2.205115 -50.387703 21.168459 15.270766 -25.448082 -7.723409 -29.413080 144.987045 -9.999120 5.476240 -65.130310 -20.943336 -36.706562 
-0.132293 20.499754 -10.913405 -10.861845 -28.546904 -15.958085 60.888023 21.453579 17.372253 5.124079 0.673793 1.865309 -4.536126 4.959700 -0.315648 -3.578877 -4.294953 30.092857 -1.715445 -20.353001 0.504430 -55.765308 -25.903179 4.889344 -84.305450 -1.307869 0.014637 -34.193417 25.523104 22.109447 7.053605 19.636471 2.010942 59.379658 19.558298 12.980776 44.986851 5.000000 8.856895 9.526461 -22.905867 23.831141 -96.303436 27.060083 -13.566590 144.976318 6.411787 -2.213939 -50.434727 21.146336 15.289486 -25.476454 -7.732216 -29.411003 144.987030 -9.999110 5.476268 -65.117485 -20.941319 -36.711437 
-0.131950 20.499754 -10.913405 -10.830343 -28.536192 -15.966585 60.856720 21.469063 17.385296 5.094682 0.664028 1.865308 -4.565371 4.950045 -0.314188 -3.531576 -4.311001 30.113045 -1.705362 -20.382370 0.502353 -55.776989 -25.860838 4.895702 -84.255211 -1.316808 0.022898 -34.168686 25.497152 22.148670 6.995039 19.645927 1.994274 59.457249 19.566948 13.030261 44.902153 5.000000 8.843841 9.513782 -22.784182 23.732216 -96.323853 27.050323 -13.553382 144.986267 6.407540 -2.205999 -50.447792 21.181261 15.303905 -25.502293 -7.747939 -29.416737 144.987045 -9.999119 5.476240 -65.121246 -20.959421 -36.735527 
-0.131610 20.499754 -10.913405 -10.798844 -28.525478 -15.979749 60.826530 21.476070 17.378601 5.065285 0.654263 1.865308 -4.595448 4.938929 -0.322348 -3.488397 -4.319022 30.123508 -1.688503 -20.411535 0.506514 -55.789124 -25.823519 4.910416 -84.206429 -1.326715 0.021483 -34.140144 25.476656 22.195166 6.937063 19.645590 1.987321 59.544285 19.565701 13.089611 44.797832 5.000000 8.831897 9.483784 -22.676056 23.634665 -96.354706 27.050549 -13.544258 144.986267 6.407542 -2.205994 -50.467636 21.191948 15.309177 -25.542616 -7.749434 -29.425879 144.987030 -9.999113 5.476260 -65.119316 -20.982824 -36.738964 
-0.131208 20.499813 -10.912780 -10.759030 -28.522833 -16.001413 60.786636 21.486523 17.392157 5.045642 0.654264 1.855543 -4.624691 4.929272 -0.320888 -3.455056 -4.343934 30.133972 -1.674674 -20.431431 0.494998 -55.805756 -25.801508 4.919970 -84.148087 -1.327208 0.015693 -34.140350 25.452967 22.214581 6.869034 19.635456 1.971048 59.631485 19.574219 13.148946 44.734528 5.000000 8.821310 9.477019 -22.604311 23.541258 -96.385559 27.050772 -13.535138 144.986771 6.427022 -2.212739 -50.478493 21.203749 15.299690 -25.576073 -7.773417 -29.403872 144.986481 -9.998966 5.494174 -65.094421 -20.930372 -36.708942 
-0.130807 20.499872 -10.912160 -10.717029 -28.509470 -16.031580 60.753578 21.488268 17.402285 5.016234 0.654265 1.845778 -4.644167 4.919617 -0.319428 -3.416062 -4.360825 30.134708 -1.664475 -20.451038 0.492624 -55.814709 -25.772257 4.929966 -84.099388 -1.337309 0.011964 -34.140572 25.429270 22.233992 6.810579 19.625393 1.954309 59.708858 19.592669 13.217946 44.659882 5.000000 8.810957 9.481584 -22.513819 23.438105 -96.406425 27.070412 -13.547363 144.996536 6.434024 -2.219768 -50.541859 21.190500 15.284332 -25.610685 -7.768843 -29.392859 144.985458 -9.993492 5.501703 -65.083488 -20.923344 -36.707436 
-0.130200 20.499441 -10.912181 -10.685547 -28.498756 -16.040081 60.719475 21.493114 17.411331 4.996591 0.654266 1.836013 -4.663645 4.909962 -0.317968 -3.393173 -4.368407 30.154913 -1.654274 -20.470646 0.490244 -55.830830 -25.745220 4.931136 -84.060371 -1.347201 0.010807 -34.116703 25.404570 22.255226 6.741909 19.634830 1.928355 59.795918 19.581640 13.267540 44.586761 5.000000 8.801725 9.481406 -22.424810 23.346605 -96.438255 27.050039 -13.536399 144.986267 6.421477 -2.220218 -50.538162 21.218363 15.275877 -25.651070 -7.769887 -29.402138 144.986481 -9.998972 5.494150 -65.068535 -20.918167 -36.721138 
-0.129388 20.498526 -10.912852 -10.654071 -28.488045 -16.053242 60.702747 21.519030 17.412392 4.967090 0.644502 1.826247 -4.673304 4.890651 -0.315048 -3.370289 -4.375986 30.175110 -1.643967 -20.480488 0.487595 -55.846943 -25.718184 4.928054 -84.022659 -1.387029 0.005698 -34.064945 25.384325 22.289776 6.683293 19.654066 1.911723 59.873344 19.580524 13.317033 44.522331 5.000000 8.775963 9.486683 -22.348238 23.248228 -96.446884 27.039925 -13.510575 144.987213 6.436863 -2.211222 -50.583023 21.231903 15.265433 -25.670650 -7.769973 -29.421066 144.986481 -9.998960 5.494185 -65.088943 -20.900513 -36.735451 
-0.128578 20.497608 -10.913522 -10.627844 -28.478661 -16.048582 60.677612 21.542707 17.424601 4.937592 0.634738 1.816482 -4.682963 4.871340 -0.312128 -3.357176 -4.383560 30.194563 -1.637307 -20.490055 0.494087 -55.863049 -25.691141 4.929201 -83.983536 -1.396675 0.007644 -34.017056 25.358582 22.316992 6.634838 19.663565 1.904341 59.941139 19.589327 13.363152 44.455967 5.000000 8.766279 9.485944 -22.259333 23.156506 -96.467766 27.040325 -13.507884 144.977280 6.441107 -2.219202 -50.621300 21.216042 15.262256 -25.713076 -7.793574 -29.426176 144.997025 -10.000000 5.494989 -65.021675 -20.898359 -36.722191 
-0.128587 20.497665 -10.912673 -10.592570 -28.474672 -16.083410 60.674652 21.539410 17.438431 4.908403 0.634737 1.816481 -4.712974 4.850568 -0.318830 -3.305007 -4.391131 30.214762 -1.637411 -20.499817 0.494347 -55.871952 -25.661877 4.939176 -83.954025 -1.415719 0.014370 -34.020180 25.328972 22.328917 6.585904 19.663338 1.887171 60.008957 19.588345 13.402797 44.410988 5.000000 8.759315 9.463427 -22.178419 23.086853 -96.489075 27.050238 -13.514891 144.977112 6.446599 -2.229936 -50.648594 21.241865 15.274056 -25.727783 -7.788028 -29.407270 144.985901 -9.998825 5.512076 -65.068649 -20.881859 -36.727055 
-0.128597 20.497723 -10.911823 -10.565625 -28.462631 -16.105070 60.673035 21.548769 17.443293 4.879199 0.644502 1.816482 -4.742164 4.831256 -0.315910 -3.262609 -4.398698 30.234966 -1.637620 -20.519341 0.494868 -55.877239 -25.635675 4.931848 -83.924583 -1.415328 0.019157 -34.020214 25.306170 22.334421 6.517770 19.672752 1.870970 60.066978 19.587511 13.442353 44.364483 5.000000 8.752897 9.436796 -22.106148 23.017731 -96.521294 27.060402 -13.525222 144.986557 6.436805 -2.229439 -50.661568 21.241838 15.265261 -25.767483 -7.798625 -29.376320 144.985901 -9.998821 5.512080 -65.056503 -20.875940 -36.684551 
-0.128205 20.497799 -10.911807 -10.538690 -28.450588 -16.122082 60.650043 21.548876 17.454651 4.859777 0.644501 1.806715 -4.761642 4.821601 -0.314450 -3.229982 -4.406262 30.254419 -1.627311 -20.529186 0.492207 -55.886124 -25.606411 4.941822 -83.924377 -1.414937 0.023532 -34.009491 25.301111 22.352327 6.468304 19.672556 1.844048 60.144588 19.586380 13.482079 44.328640 5.000000 8.750184 9.429402 -22.034637 22.953079 -96.527687 27.059820 -13.481614 144.987320 6.446671 -2.218825 -50.657066 21.266035 15.265234 -25.800533 -7.793108 -29.368195 144.986771 -10.000000 5.517693 -65.062347 -20.879686 -36.706608 
-0.127411 20.497894 -10.912617 -10.505084 -28.429157 -16.143744 60.633739 21.542196 17.456020 4.849916 0.634736 1.796949 -4.781173 4.821601 -0.314450 -3.212819 -4.421815 30.284351 -1.606484 -20.529352 0.486366 -55.902184 -25.579363 4.942933 -83.914566 -1.424575 0.025446 -33.994835 25.301458 22.379025 6.419853 19.682068 1.836666 60.202583 19.595331 13.531384 44.281887 5.000000 8.737404 9.454418 -21.972803 22.867609 -96.569473 27.079866 -13.486804 144.986938 6.450928 -2.233929 -50.631775 21.246742 15.235025 -25.829290 -7.802354 -29.356495 144.985901 -9.998823 5.512068 -65.062553 -20.879490 -36.705952 
-0.126618 20.497990 -10.913429 -10.471495 -28.407728 -16.160761 60.610374 21.545954 17.463184 4.830291 0.624970 1.777417 -4.800704 4.821601 -0.314450 -3.210383 -4.445787 30.315037 -1.585657 -20.529514 0.480524 -55.921822 -25.549250 4.957101 -83.914520 -1.434248 0.026946 -33.963375 25.310390 22.417688 6.391082 19.691662 1.838102 60.270756 19.604092 13.561242 44.237904 5.000000 8.717119 9.462200 -21.917500 22.796175 -96.599884 27.070255 -13.467615 144.987274 6.450959 -2.224817 -50.624405 21.243475 15.215565 -25.882902 -7.806541 -29.324440 144.984604 -9.993261 5.528588 -65.020386 -20.873199 -36.689770 
-0.125805 20.498756 -10.913481 -10.450779 -28.376925 -16.177780 60.599964 21.533852 17.461878 4.810653 0.624972 1.767652 -4.800652 4.811946 -0.312990 -3.186791 -4.453774 30.325521 -1.585859 -20.549040 0.481029 -55.918919 -25.510780 4.946107 -83.904930 -1.444357 0.023533 -33.962730 25.286226 22.436897 6.351774 19.681732 1.820432 60.299923 19.613440 13.581006 44.220806 5.000000 8.704509 9.458234 -21.880966 22.727663 -96.572769 27.088696 -13.416134 144.977676 6.466247 -2.236063 -50.688068 21.258579 15.229672 -25.913490 -7.837049 -29.319721 144.985901 -9.998829 5.512062 -65.018333 -20.869583 -36.694836 
-0.124994 20.499521 -10.913529 -10.435304 -28.347454 -16.186291 60.587799 21.527613 17.448807 4.791015 0.624973 1.757887 -4.810364 4.802290 -0.311530 -3.168911 -4.469744 30.345728 -1.596478 -20.568480 0.484461 -55.902130 -25.481236 4.922017 -83.914772 -1.454328 0.021414 -33.946243 25.271040 22.459837 6.322571 19.671827 1.812046 60.348179 19.602978 13.610727 44.214764 5.000000 8.685285 9.454600 -21.851620 22.644392 -96.591431 27.098303 -13.390842 144.977402 6.461882 -2.239247 -50.713875 21.247099 15.228081 -25.924028 -7.867463 -29.305494 144.984894 -9.993335 5.519640 -65.018120 -20.852383 -36.698788 
